%TF.GenerationSoftware,KiCad,Pcbnew,7.0.7*%
%TF.CreationDate,2024-06-03T14:17:06-05:00*%
%TF.ProjectId,Accel and Strain Gage board,41636365-6c20-4616-9e64-205374726169,rev?*%
%TF.SameCoordinates,Original*%
%TF.FileFunction,Copper,L2,Bot*%
%TF.FilePolarity,Positive*%
%FSLAX46Y46*%
G04 Gerber Fmt 4.6, Leading zero omitted, Abs format (unit mm)*
G04 Created by KiCad (PCBNEW 7.0.7) date 2024-06-03 14:17:06*
%MOMM*%
%LPD*%
G01*
G04 APERTURE LIST*
%TA.AperFunction,EtchedComponent*%
%ADD10C,0.200000*%
%TD*%
%TA.AperFunction,EtchedComponent*%
%ADD11C,0.025400*%
%TD*%
%TA.AperFunction,ComponentPad*%
%ADD12O,1.270000X2.286000*%
%TD*%
%TA.AperFunction,ComponentPad*%
%ADD13C,2.032000*%
%TD*%
%TA.AperFunction,SMDPad,CuDef*%
%ADD14R,0.711200X1.016000*%
%TD*%
%TA.AperFunction,SMDPad,CuDef*%
%ADD15R,1.524000X0.711200*%
%TD*%
%TA.AperFunction,ViaPad*%
%ADD16C,2.374900*%
%TD*%
%TA.AperFunction,ViaPad*%
%ADD17C,0.500000*%
%TD*%
%TA.AperFunction,Conductor*%
%ADD18C,0.200000*%
%TD*%
G04 APERTURE END LIST*
D10*
%TO.C,*%
X127000000Y-120904000D02*
X127000000Y-120904000D01*
D11*
X124777500Y-122656600D02*
X125412500Y-122656600D01*
X125412500Y-122656600D02*
X125412500Y-121221500D01*
X125412500Y-121221500D02*
X124777500Y-121221500D01*
X124777500Y-121221500D02*
X124777500Y-122656600D01*
G36*
X124777500Y-122656600D02*
G01*
X125412500Y-122656600D01*
X125412500Y-121221500D01*
X124777500Y-121221500D01*
X124777500Y-122656600D01*
G37*
X126047500Y-122656600D02*
X126682500Y-122656600D01*
X126682500Y-122656600D02*
X126682500Y-121856500D01*
X126682500Y-121856500D02*
X126047500Y-121856500D01*
X126047500Y-121856500D02*
X126047500Y-122656600D01*
G36*
X126047500Y-122656600D02*
G01*
X126682500Y-122656600D01*
X126682500Y-121856500D01*
X126047500Y-121856500D01*
X126047500Y-122656600D01*
G37*
X127317500Y-122656600D02*
X127952500Y-122656600D01*
X127952500Y-122656600D02*
X127952500Y-121856500D01*
X127952500Y-121856500D02*
X127317500Y-121856500D01*
X127317500Y-121856500D02*
X127317500Y-122656600D01*
G36*
X127317500Y-122656600D02*
G01*
X127952500Y-122656600D01*
X127952500Y-121856500D01*
X127317500Y-121856500D01*
X127317500Y-122656600D01*
G37*
X129222500Y-122656600D02*
X128587500Y-122656600D01*
X128587500Y-122656600D02*
X128587500Y-121221500D01*
X128587500Y-121221500D02*
X129222500Y-121221500D01*
X129222500Y-121221500D02*
X129222500Y-122656600D01*
G36*
X129222500Y-122656600D02*
G01*
X128587500Y-122656600D01*
X128587500Y-121221500D01*
X129222500Y-121221500D01*
X129222500Y-122656600D01*
G37*
X125095000Y-121221500D02*
X124002800Y-121221500D01*
X124002800Y-121221500D02*
X124002800Y-121856500D01*
X124002800Y-121856500D02*
X125095000Y-121856500D01*
X125095000Y-121856500D02*
X125095000Y-121221500D01*
G36*
X125095000Y-121221500D02*
G01*
X124002800Y-121221500D01*
X124002800Y-121856500D01*
X125095000Y-121856500D01*
X125095000Y-121221500D01*
G37*
X128905000Y-121221500D02*
X129997200Y-121221500D01*
X129997200Y-121221500D02*
X129997200Y-121856500D01*
X129997200Y-121856500D02*
X128905000Y-121856500D01*
X128905000Y-121856500D02*
X128905000Y-121221500D01*
G36*
X128905000Y-121221500D02*
G01*
X129997200Y-121221500D01*
X129997200Y-121856500D01*
X128905000Y-121856500D01*
X128905000Y-121221500D01*
G37*
X124777500Y-120586500D02*
X125412500Y-120586500D01*
X125412500Y-120586500D02*
X125412500Y-119151400D01*
X125412500Y-119151400D02*
X124777500Y-119151400D01*
X124777500Y-119151400D02*
X124777500Y-120586500D01*
G36*
X124777500Y-120586500D02*
G01*
X125412500Y-120586500D01*
X125412500Y-119151400D01*
X124777500Y-119151400D01*
X124777500Y-120586500D01*
G37*
X125095000Y-120586500D02*
X124002800Y-120586500D01*
X124002800Y-120586500D02*
X124002800Y-119951500D01*
X124002800Y-119951500D02*
X125095000Y-119951500D01*
X125095000Y-119951500D02*
X125095000Y-120586500D01*
G36*
X125095000Y-120586500D02*
G01*
X124002800Y-120586500D01*
X124002800Y-119951500D01*
X125095000Y-119951500D01*
X125095000Y-120586500D01*
G37*
X128905000Y-120586500D02*
X128117600Y-120586500D01*
X128117600Y-120586500D02*
X128117600Y-119951500D01*
X128117600Y-119951500D02*
X128905000Y-119951500D01*
X128905000Y-119951500D02*
X128905000Y-120586500D01*
G36*
X128905000Y-120586500D02*
G01*
X128117600Y-120586500D01*
X128117600Y-119951500D01*
X128905000Y-119951500D01*
X128905000Y-120586500D01*
G37*
X128905000Y-120586500D02*
X129997200Y-120586500D01*
X129997200Y-120586500D02*
X129997200Y-119951500D01*
X129997200Y-119951500D02*
X128905000Y-119951500D01*
X128905000Y-119951500D02*
X128905000Y-120586500D01*
G36*
X128905000Y-120586500D02*
G01*
X129997200Y-120586500D01*
X129997200Y-119951500D01*
X128905000Y-119951500D01*
X128905000Y-120586500D01*
G37*
X129222500Y-120351550D02*
X128587500Y-120351550D01*
X128587500Y-120351550D02*
X128587500Y-118916450D01*
X128587500Y-118916450D02*
X129222500Y-118916450D01*
X129222500Y-118916450D02*
X129222500Y-120351550D01*
G36*
X129222500Y-120351550D02*
G01*
X128587500Y-120351550D01*
X128587500Y-118916450D01*
X129222500Y-118916450D01*
X129222500Y-120351550D01*
G37*
%TD*%
D12*
%TO.P,,1*%
%TO.N,N/C*%
X121920000Y-116205000D03*
%TD*%
D13*
%TO.P,,1*%
%TO.N,N/C*%
X119380000Y-125730000D03*
%TD*%
D12*
%TO.P,,1*%
%TO.N,N/C*%
X132080000Y-116205000D03*
%TD*%
%TO.P,,1*%
%TO.N,N/C*%
X128270000Y-114935000D03*
%TD*%
%TO.P,,1*%
%TO.N,N/C*%
X133985000Y-116840000D03*
%TD*%
%TO.P,,1*%
%TO.N,N/C*%
X120015000Y-116840000D03*
%TD*%
D13*
%TO.P,,1*%
%TO.N,N/C*%
X134620000Y-128270000D03*
%TD*%
D12*
%TO.P,,1*%
%TO.N,N/C*%
X130175000Y-115570000D03*
%TD*%
%TO.P,,1*%
%TO.N,N/C*%
X125730000Y-114935000D03*
%TD*%
%TO.P,,1*%
%TO.N,N/C*%
X123825000Y-115570000D03*
%TD*%
D13*
%TO.P,,1*%
%TO.N,N/C*%
X119380000Y-128270000D03*
%TD*%
%TO.P,,1*%
%TO.N,N/C*%
X134620000Y-125730000D03*
%TD*%
D14*
%TO.P,,1*%
%TO.N,N/C*%
X128905000Y-123164600D03*
D15*
X130759200Y-120269000D03*
D14*
%TO.P,,2*%
X127635000Y-123164600D03*
%TO.P,,3*%
X126365000Y-123164600D03*
%TO.P,,4*%
X125095000Y-123164600D03*
D15*
%TO.P,,5*%
X123240800Y-121539000D03*
%TO.P,,6*%
X123240800Y-120269000D03*
D14*
%TO.P,,7*%
X125095000Y-118643400D03*
%TO.P,,8*%
X126365000Y-118643400D03*
%TO.P,,9*%
X127635000Y-118643400D03*
%TO.P,,10*%
X128905000Y-118643400D03*
D15*
%TO.P,,12*%
X130759200Y-121539000D03*
%TD*%
D16*
%TO.N,*%
X142947856Y-136207521D03*
X126999996Y-108585021D03*
D17*
X128143000Y-116840000D03*
D16*
X111052136Y-136207521D03*
%TD*%
D18*
%TO.N,*%
X122428000Y-117983000D02*
X121405618Y-119005382D01*
X130175000Y-115570000D02*
X129264210Y-116480790D01*
X128905000Y-117348000D02*
X128905000Y-118603750D01*
X120777000Y-120523000D02*
X120777000Y-120724395D01*
X122130420Y-121539000D02*
X123240800Y-121539000D01*
X125095000Y-118643400D02*
X125095000Y-117908605D01*
X125593975Y-116967000D02*
X124880840Y-116967000D01*
X133985000Y-116840000D02*
X133985000Y-119857185D01*
X128090395Y-115368605D02*
X127127000Y-116332000D01*
X125730000Y-117475000D02*
X126609975Y-117475000D01*
X125528605Y-117475000D02*
X125730000Y-117475000D01*
X131764370Y-121539000D02*
X130759200Y-121539000D01*
X124880840Y-116967017D02*
G75*
G03*
X122428000Y-117983000I-40J-3468783D01*
G01*
X125221998Y-117601998D02*
G75*
G03*
X125095000Y-117908605I306602J-306602D01*
G01*
X129264214Y-116480794D02*
G75*
G03*
X128905000Y-117348000I867186J-867206D01*
G01*
X131764370Y-121538987D02*
G75*
G03*
X133604000Y-120777000I30J2601587D01*
G01*
X126609975Y-117474989D02*
G75*
G03*
X128143000Y-116840000I25J2167989D01*
G01*
X121405625Y-119005389D02*
G75*
G03*
X120777000Y-120523000I1517575J-1517611D01*
G01*
X133604005Y-120777005D02*
G75*
G03*
X133985000Y-119857185I-919805J919805D01*
G01*
X125593975Y-116966989D02*
G75*
G03*
X127127000Y-116332000I25J2167989D01*
G01*
X128090393Y-115368603D02*
G75*
G03*
X128270000Y-114935000I-433593J433603D01*
G01*
X120777003Y-120724395D02*
G75*
G03*
X120904001Y-121030999I433597J-5D01*
G01*
X125528605Y-117475003D02*
G75*
G03*
X125222001Y-117602001I-5J-433597D01*
G01*
X120903994Y-121031006D02*
G75*
G03*
X122130420Y-121539000I1226406J1226406D01*
G01*
%TD*%
M02*
