%TF.GenerationSoftware,KiCad,Pcbnew,7.0.7*%
%TF.CreationDate,2024-06-03T14:17:06-05:00*%
%TF.ProjectId,Accel and Strain Gage board,41636365-6c20-4616-9e64-205374726169,rev?*%
%TF.SameCoordinates,Original*%
%TF.FileFunction,Legend,Bot*%
%TF.FilePolarity,Positive*%
%FSLAX46Y46*%
G04 Gerber Fmt 4.6, Leading zero omitted, Abs format (unit mm)*
G04 Created by KiCad (PCBNEW 7.0.7) date 2024-06-03 14:17:06*
%MOMM*%
%LPD*%
G01*
G04 APERTURE LIST*
%ADD10C,0.150000*%
G04 APERTURE END LIST*
D10*
X132842000Y-127000000D02*
X134940000Y-127000000D01*
X127000000Y-130048000D02*
X127000000Y-130810000D01*
X127000000Y-123190000D02*
X127000000Y-123952000D01*
X121158000Y-127000000D02*
X119049800Y-127000000D01*
X129552458Y-116979819D02*
X128933411Y-116979819D01*
X128933411Y-116979819D02*
X129266744Y-117360771D01*
X129266744Y-117360771D02*
X129123887Y-117360771D01*
X129123887Y-117360771D02*
X129028649Y-117408390D01*
X129028649Y-117408390D02*
X128981030Y-117456009D01*
X128981030Y-117456009D02*
X128933411Y-117551247D01*
X128933411Y-117551247D02*
X128933411Y-117789342D01*
X128933411Y-117789342D02*
X128981030Y-117884580D01*
X128981030Y-117884580D02*
X129028649Y-117932200D01*
X129028649Y-117932200D02*
X129123887Y-117979819D01*
X129123887Y-117979819D02*
X129409601Y-117979819D01*
X129409601Y-117979819D02*
X129504839Y-117932200D01*
X129504839Y-117932200D02*
X129552458Y-117884580D01*
X128028649Y-116979819D02*
X128504839Y-116979819D01*
X128504839Y-116979819D02*
X128552458Y-117456009D01*
X128552458Y-117456009D02*
X128504839Y-117408390D01*
X128504839Y-117408390D02*
X128409601Y-117360771D01*
X128409601Y-117360771D02*
X128171506Y-117360771D01*
X128171506Y-117360771D02*
X128076268Y-117408390D01*
X128076268Y-117408390D02*
X128028649Y-117456009D01*
X128028649Y-117456009D02*
X127981030Y-117551247D01*
X127981030Y-117551247D02*
X127981030Y-117789342D01*
X127981030Y-117789342D02*
X128028649Y-117884580D01*
X128028649Y-117884580D02*
X128076268Y-117932200D01*
X128076268Y-117932200D02*
X128171506Y-117979819D01*
X128171506Y-117979819D02*
X128409601Y-117979819D01*
X128409601Y-117979819D02*
X128504839Y-117932200D01*
X128504839Y-117932200D02*
X128552458Y-117884580D01*
X127361982Y-116979819D02*
X127266744Y-116979819D01*
X127266744Y-116979819D02*
X127171506Y-117027438D01*
X127171506Y-117027438D02*
X127123887Y-117075057D01*
X127123887Y-117075057D02*
X127076268Y-117170295D01*
X127076268Y-117170295D02*
X127028649Y-117360771D01*
X127028649Y-117360771D02*
X127028649Y-117598866D01*
X127028649Y-117598866D02*
X127076268Y-117789342D01*
X127076268Y-117789342D02*
X127123887Y-117884580D01*
X127123887Y-117884580D02*
X127171506Y-117932200D01*
X127171506Y-117932200D02*
X127266744Y-117979819D01*
X127266744Y-117979819D02*
X127361982Y-117979819D01*
X127361982Y-117979819D02*
X127457220Y-117932200D01*
X127457220Y-117932200D02*
X127504839Y-117884580D01*
X127504839Y-117884580D02*
X127552458Y-117789342D01*
X127552458Y-117789342D02*
X127600077Y-117598866D01*
X127600077Y-117598866D02*
X127600077Y-117360771D01*
X127600077Y-117360771D02*
X127552458Y-117170295D01*
X127552458Y-117170295D02*
X127504839Y-117075057D01*
X127504839Y-117075057D02*
X127457220Y-117027438D01*
X127457220Y-117027438D02*
X127361982Y-116979819D01*
X126076268Y-117979819D02*
X126647696Y-117979819D01*
X126361982Y-117979819D02*
X126361982Y-116979819D01*
X126361982Y-116979819D02*
X126457220Y-117122676D01*
X126457220Y-117122676D02*
X126552458Y-117217914D01*
X126552458Y-117217914D02*
X126647696Y-117265533D01*
X125695315Y-117694104D02*
X125219125Y-117694104D01*
X125790553Y-117979819D02*
X125457220Y-116979819D01*
X125457220Y-116979819D02*
X125123887Y-117979819D01*
X124838172Y-117075057D02*
X124790553Y-117027438D01*
X124790553Y-117027438D02*
X124695315Y-116979819D01*
X124695315Y-116979819D02*
X124457220Y-116979819D01*
X124457220Y-116979819D02*
X124361982Y-117027438D01*
X124361982Y-117027438D02*
X124314363Y-117075057D01*
X124314363Y-117075057D02*
X124266744Y-117170295D01*
X124266744Y-117170295D02*
X124266744Y-117265533D01*
X124266744Y-117265533D02*
X124314363Y-117408390D01*
X124314363Y-117408390D02*
X124885791Y-117979819D01*
X124885791Y-117979819D02*
X124266744Y-117979819D01*
X123647696Y-116979819D02*
X123552458Y-116979819D01*
X123552458Y-116979819D02*
X123457220Y-117027438D01*
X123457220Y-117027438D02*
X123409601Y-117075057D01*
X123409601Y-117075057D02*
X123361982Y-117170295D01*
X123361982Y-117170295D02*
X123314363Y-117360771D01*
X123314363Y-117360771D02*
X123314363Y-117598866D01*
X123314363Y-117598866D02*
X123361982Y-117789342D01*
X123361982Y-117789342D02*
X123409601Y-117884580D01*
X123409601Y-117884580D02*
X123457220Y-117932200D01*
X123457220Y-117932200D02*
X123552458Y-117979819D01*
X123552458Y-117979819D02*
X123647696Y-117979819D01*
X123647696Y-117979819D02*
X123742934Y-117932200D01*
X123742934Y-117932200D02*
X123790553Y-117884580D01*
X123790553Y-117884580D02*
X123838172Y-117789342D01*
X123838172Y-117789342D02*
X123885791Y-117598866D01*
X123885791Y-117598866D02*
X123885791Y-117360771D01*
X123885791Y-117360771D02*
X123838172Y-117170295D01*
X123838172Y-117170295D02*
X123790553Y-117075057D01*
X123790553Y-117075057D02*
X123742934Y-117027438D01*
X123742934Y-117027438D02*
X123647696Y-116979819D01*
X113224863Y-132483311D02*
X113442578Y-132860403D01*
X113993632Y-132290857D02*
X113333721Y-132671857D01*
X114447203Y-133076465D02*
X114005960Y-133037923D01*
X114229489Y-132699373D02*
X113569577Y-133080373D01*
X113569577Y-133080373D02*
X113714720Y-133331768D01*
X113714720Y-133331768D02*
X113782430Y-133376474D01*
X113782430Y-133376474D02*
X113831998Y-133389755D01*
X113831998Y-133389755D02*
X113912989Y-133384894D01*
X113912989Y-133384894D02*
X114007262Y-133330465D01*
X114007262Y-133330465D02*
X114051968Y-133262755D01*
X114051968Y-133262755D02*
X114065250Y-133213188D01*
X114065250Y-133213188D02*
X114060388Y-133132196D01*
X114060388Y-133132196D02*
X113915245Y-132880801D01*
X114023149Y-133865982D02*
X114095720Y-133991679D01*
X114095720Y-133991679D02*
X114163430Y-134036385D01*
X114163430Y-134036385D02*
X114262565Y-134062948D01*
X114262565Y-134062948D02*
X114406405Y-134021801D01*
X114406405Y-134021801D02*
X114626376Y-133894801D01*
X114626376Y-133894801D02*
X114733930Y-133790805D01*
X114733930Y-133790805D02*
X114760493Y-133691671D01*
X114760493Y-133691671D02*
X114755632Y-133610679D01*
X114755632Y-133610679D02*
X114683060Y-133484982D01*
X114683060Y-133484982D02*
X114615350Y-133440276D01*
X114615350Y-133440276D02*
X114516216Y-133413713D01*
X114516216Y-133413713D02*
X114372376Y-133454860D01*
X114372376Y-133454860D02*
X114152405Y-133581860D01*
X114152405Y-133581860D02*
X114044851Y-133685856D01*
X114044851Y-133685856D02*
X114018288Y-133784990D01*
X114018288Y-133784990D02*
X114023149Y-133865982D01*
X114295292Y-134337347D02*
X114513006Y-134714439D01*
X115064060Y-134144893D02*
X114404149Y-134525893D01*
X114585577Y-134840136D02*
X114803292Y-135217229D01*
X115354346Y-134647683D02*
X114694435Y-135028683D01*
X115244535Y-135255770D02*
X115371535Y-135475741D01*
X115771631Y-135370442D02*
X115590203Y-135056199D01*
X115590203Y-135056199D02*
X114930291Y-135437199D01*
X114930291Y-135437199D02*
X115111720Y-135751442D01*
X116152632Y-136030354D02*
X115711388Y-135991812D01*
X115934917Y-135653262D02*
X115275006Y-136034262D01*
X115275006Y-136034262D02*
X115420149Y-136285657D01*
X115420149Y-136285657D02*
X115487859Y-136330362D01*
X115487859Y-136330362D02*
X115537426Y-136343644D01*
X115537426Y-136343644D02*
X115618418Y-136338783D01*
X115618418Y-136338783D02*
X115712691Y-136284354D01*
X115712691Y-136284354D02*
X115757397Y-136216644D01*
X115757397Y-136216644D02*
X115770678Y-136167077D01*
X115770678Y-136167077D02*
X115765817Y-136086085D01*
X115765817Y-136086085D02*
X115620674Y-135834690D01*
X113292022Y-128694564D02*
X113377875Y-128770694D01*
X113377875Y-128770694D02*
X113468589Y-128927816D01*
X113468589Y-128927816D02*
X113473450Y-129008808D01*
X113473450Y-129008808D02*
X113460169Y-129058375D01*
X113460169Y-129058375D02*
X113415463Y-129126085D01*
X113415463Y-129126085D02*
X113352614Y-129162371D01*
X113352614Y-129162371D02*
X113271623Y-129167232D01*
X113271623Y-129167232D02*
X113222055Y-129153950D01*
X113222055Y-129153950D02*
X113154345Y-129109245D01*
X113154345Y-129109245D02*
X113050350Y-129001690D01*
X113050350Y-129001690D02*
X112982640Y-128956984D01*
X112982640Y-128956984D02*
X112933072Y-128943703D01*
X112933072Y-128943703D02*
X112852081Y-128948564D01*
X112852081Y-128948564D02*
X112789232Y-128984850D01*
X112789232Y-128984850D02*
X112744526Y-129052560D01*
X112744526Y-129052560D02*
X112731245Y-129102127D01*
X112731245Y-129102127D02*
X112736106Y-129183119D01*
X112736106Y-129183119D02*
X112826820Y-129340240D01*
X112826820Y-129340240D02*
X112912673Y-129416371D01*
X113275530Y-130044857D02*
X113207820Y-130000151D01*
X113207820Y-130000151D02*
X113153392Y-129905878D01*
X113153392Y-129905878D02*
X113130387Y-129793462D01*
X113130387Y-129793462D02*
X113156950Y-129694328D01*
X113156950Y-129694328D02*
X113201656Y-129626618D01*
X113201656Y-129626618D02*
X113309211Y-129522622D01*
X113309211Y-129522622D02*
X113403484Y-129468194D01*
X113403484Y-129468194D02*
X113547324Y-129427047D01*
X113547324Y-129427047D02*
X113628316Y-129422185D01*
X113628316Y-129422185D02*
X113727450Y-129448748D01*
X113727450Y-129448748D02*
X113813303Y-129524878D01*
X113813303Y-129524878D02*
X113849589Y-129587727D01*
X113849589Y-129587727D02*
X113872593Y-129700143D01*
X113872593Y-129700143D02*
X113859311Y-129749710D01*
X113859311Y-129749710D02*
X113639341Y-129876710D01*
X113639341Y-129876710D02*
X113566770Y-129751013D01*
X114124337Y-130644176D02*
X114414622Y-131146965D01*
X114520874Y-130750428D02*
X114018085Y-131040713D01*
X114931042Y-131896288D02*
X115112471Y-132210532D01*
X115083303Y-131724583D02*
X114550391Y-132325553D01*
X114550391Y-132325553D02*
X115337303Y-132164523D01*
X115619168Y-132797872D02*
X115632450Y-132748305D01*
X115632450Y-132748305D02*
X115609446Y-132635889D01*
X115609446Y-132635889D02*
X115573160Y-132573040D01*
X115573160Y-132573040D02*
X115487307Y-132496910D01*
X115487307Y-132496910D02*
X115388173Y-132470347D01*
X115388173Y-132470347D02*
X115307181Y-132475208D01*
X115307181Y-132475208D02*
X115163341Y-132516355D01*
X115163341Y-132516355D02*
X115069068Y-132570784D01*
X115069068Y-132570784D02*
X114961513Y-132674780D01*
X114961513Y-132674780D02*
X114916807Y-132742490D01*
X114916807Y-132742490D02*
X114890244Y-132841624D01*
X114890244Y-132841624D02*
X114913249Y-132954040D01*
X114913249Y-132954040D02*
X114949534Y-133016889D01*
X114949534Y-133016889D02*
X115035387Y-133093019D01*
X115035387Y-133093019D02*
X115084954Y-133106300D01*
X116000168Y-133457783D02*
X116013450Y-133408216D01*
X116013450Y-133408216D02*
X115990446Y-133295800D01*
X115990446Y-133295800D02*
X115954160Y-133232951D01*
X115954160Y-133232951D02*
X115868307Y-133156821D01*
X115868307Y-133156821D02*
X115769173Y-133130258D01*
X115769173Y-133130258D02*
X115688181Y-133135120D01*
X115688181Y-133135120D02*
X115544341Y-133176267D01*
X115544341Y-133176267D02*
X115450068Y-133230695D01*
X115450068Y-133230695D02*
X115342513Y-133334691D01*
X115342513Y-133334691D02*
X115297807Y-133402401D01*
X115297807Y-133402401D02*
X115271244Y-133501536D01*
X115271244Y-133501536D02*
X115294249Y-133613951D01*
X115294249Y-133613951D02*
X115330534Y-133676800D01*
X115330534Y-133676800D02*
X115416387Y-133752930D01*
X115416387Y-133752930D02*
X115465954Y-133766212D01*
X115880635Y-133903888D02*
X116007635Y-134123859D01*
X116407731Y-134018560D02*
X116226303Y-133704317D01*
X116226303Y-133704317D02*
X115566391Y-134085317D01*
X115566391Y-134085317D02*
X115747820Y-134399560D01*
X116752446Y-134615623D02*
X116571017Y-134301380D01*
X116571017Y-134301380D02*
X115911106Y-134682380D01*
X116951063Y-135757925D02*
X117036916Y-135834055D01*
X117036916Y-135834055D02*
X117086484Y-135847336D01*
X117086484Y-135847336D02*
X117167475Y-135842475D01*
X117167475Y-135842475D02*
X117261748Y-135788046D01*
X117261748Y-135788046D02*
X117306454Y-135720336D01*
X117306454Y-135720336D02*
X117319736Y-135670769D01*
X117319736Y-135670769D02*
X117314874Y-135589778D01*
X117314874Y-135589778D02*
X117169731Y-135338383D01*
X117169731Y-135338383D02*
X116509820Y-135719383D01*
X116509820Y-135719383D02*
X116636820Y-135939353D01*
X116636820Y-135939353D02*
X116704530Y-135984059D01*
X116704530Y-135984059D02*
X116754097Y-135997341D01*
X116754097Y-135997341D02*
X116835089Y-135992479D01*
X116835089Y-135992479D02*
X116897938Y-135956194D01*
X116897938Y-135956194D02*
X116942643Y-135888483D01*
X116942643Y-135888483D02*
X116955925Y-135838916D01*
X116955925Y-135838916D02*
X116951063Y-135757925D01*
X116951063Y-135757925D02*
X116824063Y-135537954D01*
X116963391Y-136504992D02*
X117035963Y-136630689D01*
X117035963Y-136630689D02*
X117103673Y-136675395D01*
X117103673Y-136675395D02*
X117202807Y-136701958D01*
X117202807Y-136701958D02*
X117346648Y-136660811D01*
X117346648Y-136660811D02*
X117566618Y-136533811D01*
X117566618Y-136533811D02*
X117674173Y-136429815D01*
X117674173Y-136429815D02*
X117700736Y-136330681D01*
X117700736Y-136330681D02*
X117695874Y-136249689D01*
X117695874Y-136249689D02*
X117623303Y-136123992D01*
X117623303Y-136123992D02*
X117555593Y-136079286D01*
X117555593Y-136079286D02*
X117456458Y-136052723D01*
X117456458Y-136052723D02*
X117312618Y-136093870D01*
X117312618Y-136093870D02*
X117092648Y-136220870D01*
X117092648Y-136220870D02*
X116985093Y-136324866D01*
X116985093Y-136324866D02*
X116958530Y-136424000D01*
X116958530Y-136424000D02*
X116963391Y-136504992D01*
X117743185Y-136767063D02*
X117924614Y-137081306D01*
X117895446Y-136595357D02*
X117362534Y-137196328D01*
X117362534Y-137196328D02*
X118149446Y-137035298D01*
X118494160Y-137632361D02*
X118052917Y-137593819D01*
X118276446Y-137255269D02*
X117616534Y-137636269D01*
X117616534Y-137636269D02*
X117761677Y-137887663D01*
X117761677Y-137887663D02*
X117829387Y-137932369D01*
X117829387Y-137932369D02*
X117878955Y-137945651D01*
X117878955Y-137945651D02*
X117959946Y-137940789D01*
X117959946Y-137940789D02*
X118054219Y-137886361D01*
X118054219Y-137886361D02*
X118098925Y-137818651D01*
X118098925Y-137818651D02*
X118112207Y-137769083D01*
X118112207Y-137769083D02*
X118107345Y-137688092D01*
X118107345Y-137688092D02*
X117962202Y-137436697D01*
X118657446Y-137915180D02*
X117997534Y-138296180D01*
X117997534Y-138296180D02*
X118088249Y-138453302D01*
X118088249Y-138453302D02*
X118174102Y-138529432D01*
X118174102Y-138529432D02*
X118273236Y-138555995D01*
X118273236Y-138555995D02*
X118354228Y-138551133D01*
X118354228Y-138551133D02*
X118498068Y-138509986D01*
X118498068Y-138509986D02*
X118592341Y-138455558D01*
X118592341Y-138455558D02*
X118699896Y-138351562D01*
X118699896Y-138351562D02*
X118744601Y-138283852D01*
X118744601Y-138283852D02*
X118771164Y-138184718D01*
X118771164Y-138184718D02*
X118748160Y-138072302D01*
X118748160Y-138072302D02*
X118657446Y-137915180D01*
X114304260Y-127921602D02*
X113644349Y-128302602D01*
X113644349Y-128302602D02*
X113735063Y-128459724D01*
X113735063Y-128459724D02*
X113820916Y-128535854D01*
X113820916Y-128535854D02*
X113920051Y-128562417D01*
X113920051Y-128562417D02*
X114001042Y-128557556D01*
X114001042Y-128557556D02*
X114144882Y-128516408D01*
X114144882Y-128516408D02*
X114239155Y-128461980D01*
X114239155Y-128461980D02*
X114346710Y-128357984D01*
X114346710Y-128357984D02*
X114391416Y-128290274D01*
X114391416Y-128290274D02*
X114417979Y-128191140D01*
X114417979Y-128191140D02*
X114394975Y-128078724D01*
X114394975Y-128078724D02*
X114304260Y-127921602D01*
X114339592Y-128781085D02*
X114466592Y-129001055D01*
X114866689Y-128895757D02*
X114685260Y-128581513D01*
X114685260Y-128581513D02*
X114025349Y-128962513D01*
X114025349Y-128962513D02*
X114206778Y-129276757D01*
X114980408Y-129165295D02*
X115066261Y-129241425D01*
X115066261Y-129241425D02*
X115156975Y-129398547D01*
X115156975Y-129398547D02*
X115161836Y-129479538D01*
X115161836Y-129479538D02*
X115148555Y-129529106D01*
X115148555Y-129529106D02*
X115103849Y-129596816D01*
X115103849Y-129596816D02*
X115041000Y-129633101D01*
X115041000Y-129633101D02*
X114960009Y-129637963D01*
X114960009Y-129637963D02*
X114910441Y-129624681D01*
X114910441Y-129624681D02*
X114842731Y-129579975D01*
X114842731Y-129579975D02*
X114738736Y-129472421D01*
X114738736Y-129472421D02*
X114671026Y-129427715D01*
X114671026Y-129427715D02*
X114621458Y-129414433D01*
X114621458Y-129414433D02*
X114540467Y-129419295D01*
X114540467Y-129419295D02*
X114477618Y-129455581D01*
X114477618Y-129455581D02*
X114432912Y-129523291D01*
X114432912Y-129523291D02*
X114419631Y-129572858D01*
X114419631Y-129572858D02*
X114424492Y-129653849D01*
X114424492Y-129653849D02*
X114515206Y-129810971D01*
X114515206Y-129810971D02*
X114601059Y-129887101D01*
X115392832Y-129807063D02*
X114732920Y-130188063D01*
X115145345Y-130829831D02*
X115077635Y-130785126D01*
X115077635Y-130785126D02*
X115023206Y-130690853D01*
X115023206Y-130690853D02*
X115000202Y-130578437D01*
X115000202Y-130578437D02*
X115026765Y-130479302D01*
X115026765Y-130479302D02*
X115071471Y-130411592D01*
X115071471Y-130411592D02*
X115179025Y-130307596D01*
X115179025Y-130307596D02*
X115273298Y-130253168D01*
X115273298Y-130253168D02*
X115417139Y-130212021D01*
X115417139Y-130212021D02*
X115498130Y-130207159D01*
X115498130Y-130207159D02*
X115597265Y-130233722D01*
X115597265Y-130233722D02*
X115683117Y-130309853D01*
X115683117Y-130309853D02*
X115719403Y-130372701D01*
X115719403Y-130372701D02*
X115742407Y-130485117D01*
X115742407Y-130485117D02*
X115729126Y-130534684D01*
X115729126Y-130534684D02*
X115509155Y-130661684D01*
X115509155Y-130661684D02*
X115436584Y-130535987D01*
X115955260Y-130781218D02*
X115295349Y-131162218D01*
X115295349Y-131162218D02*
X116172975Y-131158310D01*
X116172975Y-131158310D02*
X115513063Y-131539310D01*
X116008735Y-131672125D02*
X116135735Y-131892096D01*
X116535832Y-131786797D02*
X116354403Y-131472554D01*
X116354403Y-131472554D02*
X115694492Y-131853554D01*
X115694492Y-131853554D02*
X115875921Y-132167797D01*
X116916832Y-132446709D02*
X116475589Y-132408167D01*
X116699118Y-132069617D02*
X116039206Y-132450617D01*
X116039206Y-132450617D02*
X116184349Y-132702012D01*
X116184349Y-132702012D02*
X116252059Y-132746717D01*
X116252059Y-132746717D02*
X116301627Y-132759999D01*
X116301627Y-132759999D02*
X116382618Y-132755138D01*
X116382618Y-132755138D02*
X116476891Y-132700709D01*
X116476891Y-132700709D02*
X116521597Y-132632999D01*
X116521597Y-132632999D02*
X116534879Y-132583432D01*
X116534879Y-132583432D02*
X116530017Y-132502440D01*
X116530017Y-132502440D02*
X116384874Y-132251045D01*
X116819349Y-133801864D02*
X117290714Y-133529721D01*
X117290714Y-133529721D02*
X117366845Y-133443868D01*
X117366845Y-133443868D02*
X117393408Y-133344733D01*
X117393408Y-133344733D02*
X117370403Y-133232317D01*
X117370403Y-133232317D02*
X117334118Y-133169469D01*
X117901407Y-134224614D02*
X117987260Y-134300745D01*
X117987260Y-134300745D02*
X118077974Y-134457866D01*
X118077974Y-134457866D02*
X118082836Y-134538858D01*
X118082836Y-134538858D02*
X118069554Y-134588425D01*
X118069554Y-134588425D02*
X118024848Y-134656135D01*
X118024848Y-134656135D02*
X117962000Y-134692421D01*
X117962000Y-134692421D02*
X117881008Y-134697282D01*
X117881008Y-134697282D02*
X117831441Y-134684001D01*
X117831441Y-134684001D02*
X117763731Y-134639295D01*
X117763731Y-134639295D02*
X117659735Y-134531740D01*
X117659735Y-134531740D02*
X117592025Y-134487035D01*
X117592025Y-134487035D02*
X117542458Y-134473753D01*
X117542458Y-134473753D02*
X117461466Y-134478614D01*
X117461466Y-134478614D02*
X117398618Y-134514900D01*
X117398618Y-134514900D02*
X117353912Y-134582610D01*
X117353912Y-134582610D02*
X117340630Y-134632177D01*
X117340630Y-134632177D02*
X117345492Y-134713169D01*
X117345492Y-134713169D02*
X117436206Y-134870291D01*
X117436206Y-134870291D02*
X117522059Y-134946421D01*
X118468697Y-135279761D02*
X118481978Y-135230193D01*
X118481978Y-135230193D02*
X118458974Y-135117777D01*
X118458974Y-135117777D02*
X118422688Y-135054929D01*
X118422688Y-135054929D02*
X118336836Y-134978799D01*
X118336836Y-134978799D02*
X118237701Y-134952236D01*
X118237701Y-134952236D02*
X118156710Y-134957097D01*
X118156710Y-134957097D02*
X118012869Y-134998244D01*
X118012869Y-134998244D02*
X117918596Y-135052673D01*
X117918596Y-135052673D02*
X117811042Y-135156668D01*
X117811042Y-135156668D02*
X117766336Y-135224378D01*
X117766336Y-135224378D02*
X117739773Y-135323513D01*
X117739773Y-135323513D02*
X117762777Y-135435929D01*
X117762777Y-135435929D02*
X117799063Y-135498777D01*
X117799063Y-135498777D02*
X117884916Y-135574908D01*
X117884916Y-135574908D02*
X117934483Y-135588189D01*
X118694831Y-135526294D02*
X118034920Y-135907294D01*
X118349163Y-135725865D02*
X118566878Y-136102958D01*
X118912546Y-135903386D02*
X118252634Y-136284386D01*
X118748306Y-136417201D02*
X118875306Y-136637172D01*
X119275403Y-136531873D02*
X119093974Y-136217630D01*
X119093974Y-136217630D02*
X118434063Y-136598630D01*
X118434063Y-136598630D02*
X118615492Y-136912873D01*
X119438689Y-136814693D02*
X118778777Y-137195693D01*
X118778777Y-137195693D02*
X118923920Y-137447088D01*
X118923920Y-137447088D02*
X118991630Y-137491794D01*
X118991630Y-137491794D02*
X119041198Y-137505075D01*
X119041198Y-137505075D02*
X119122189Y-137500214D01*
X119122189Y-137500214D02*
X119216462Y-137445785D01*
X119216462Y-137445785D02*
X119261168Y-137378075D01*
X119261168Y-137378075D02*
X119274450Y-137328508D01*
X119274450Y-137328508D02*
X119269588Y-137247516D01*
X119269588Y-137247516D02*
X119124445Y-136996122D01*
X119819689Y-137474604D02*
X119159777Y-137855604D01*
X119159777Y-137855604D02*
X119304920Y-138106999D01*
X119304920Y-138106999D02*
X119372630Y-138151705D01*
X119372630Y-138151705D02*
X119422198Y-138164986D01*
X119422198Y-138164986D02*
X119503189Y-138160125D01*
X119503189Y-138160125D02*
X119597462Y-138105697D01*
X119597462Y-138105697D02*
X119642168Y-138037986D01*
X119642168Y-138037986D02*
X119655450Y-137988419D01*
X119655450Y-137988419D02*
X119650588Y-137907428D01*
X119650588Y-137907428D02*
X119505445Y-137656033D01*
X115973549Y-129157542D02*
X115846549Y-128937571D01*
X116192217Y-128738000D02*
X115532306Y-129119000D01*
X115532306Y-129119000D02*
X115713735Y-129433243D01*
X116312100Y-129381071D02*
X116493528Y-129695315D01*
X116464360Y-129209365D02*
X115931449Y-129810336D01*
X115931449Y-129810336D02*
X116718360Y-129649306D01*
X116626692Y-130288819D02*
X116712545Y-130364949D01*
X116712545Y-130364949D02*
X116762113Y-130378230D01*
X116762113Y-130378230D02*
X116843104Y-130373369D01*
X116843104Y-130373369D02*
X116937377Y-130318940D01*
X116937377Y-130318940D02*
X116982083Y-130251230D01*
X116982083Y-130251230D02*
X116995365Y-130201663D01*
X116995365Y-130201663D02*
X116990503Y-130120672D01*
X116990503Y-130120672D02*
X116845360Y-129869277D01*
X116845360Y-129869277D02*
X116185449Y-130250277D01*
X116185449Y-130250277D02*
X116312449Y-130470247D01*
X116312449Y-130470247D02*
X116380159Y-130514953D01*
X116380159Y-130514953D02*
X116429726Y-130528235D01*
X116429726Y-130528235D02*
X116510718Y-130523373D01*
X116510718Y-130523373D02*
X116573567Y-130487087D01*
X116573567Y-130487087D02*
X116618272Y-130419377D01*
X116618272Y-130419377D02*
X116631554Y-130369810D01*
X116631554Y-130369810D02*
X116626692Y-130288819D01*
X116626692Y-130288819D02*
X116499692Y-130068848D01*
X116929306Y-131538675D02*
X117001877Y-131664372D01*
X117001877Y-131664372D02*
X117069587Y-131709078D01*
X117069587Y-131709078D02*
X117168722Y-131735641D01*
X117168722Y-131735641D02*
X117312562Y-131694494D01*
X117312562Y-131694494D02*
X117532533Y-131567494D01*
X117532533Y-131567494D02*
X117640087Y-131463498D01*
X117640087Y-131463498D02*
X117666650Y-131364364D01*
X117666650Y-131364364D02*
X117661789Y-131283372D01*
X117661789Y-131283372D02*
X117589217Y-131157675D01*
X117589217Y-131157675D02*
X117521507Y-131112969D01*
X117521507Y-131112969D02*
X117422373Y-131086406D01*
X117422373Y-131086406D02*
X117278533Y-131127553D01*
X117278533Y-131127553D02*
X117058562Y-131254553D01*
X117058562Y-131254553D02*
X116951008Y-131358549D01*
X116951008Y-131358549D02*
X116924445Y-131457683D01*
X116924445Y-131457683D02*
X116929306Y-131538675D01*
X117866222Y-131710032D02*
X117952075Y-131786162D01*
X117952075Y-131786162D02*
X118042789Y-131943284D01*
X118042789Y-131943284D02*
X118047650Y-132024275D01*
X118047650Y-132024275D02*
X118034369Y-132073843D01*
X118034369Y-132073843D02*
X117989663Y-132141553D01*
X117989663Y-132141553D02*
X117926814Y-132177838D01*
X117926814Y-132177838D02*
X117845823Y-132182700D01*
X117845823Y-132182700D02*
X117796255Y-132169418D01*
X117796255Y-132169418D02*
X117728545Y-132124712D01*
X117728545Y-132124712D02*
X117624550Y-132017158D01*
X117624550Y-132017158D02*
X117556840Y-131972452D01*
X117556840Y-131972452D02*
X117507272Y-131959170D01*
X117507272Y-131959170D02*
X117426281Y-131964032D01*
X117426281Y-131964032D02*
X117363432Y-132000318D01*
X117363432Y-132000318D02*
X117318726Y-132068028D01*
X117318726Y-132068028D02*
X117305445Y-132117595D01*
X117305445Y-132117595D02*
X117310306Y-132198586D01*
X117310306Y-132198586D02*
X117401020Y-132355708D01*
X117401020Y-132355708D02*
X117486873Y-132431838D01*
X118278646Y-132351800D02*
X117618734Y-132732800D01*
X117932978Y-132551371D02*
X118150692Y-132928464D01*
X118496360Y-132728892D02*
X117836449Y-133109892D01*
X118968074Y-133545925D02*
X118308163Y-133926925D01*
X118308163Y-133926925D02*
X118453306Y-134178320D01*
X118453306Y-134178320D02*
X118521016Y-134223026D01*
X118521016Y-134223026D02*
X118570583Y-134236307D01*
X118570583Y-134236307D02*
X118651575Y-134231446D01*
X118651575Y-134231446D02*
X118745848Y-134177017D01*
X118745848Y-134177017D02*
X118790554Y-134109307D01*
X118790554Y-134109307D02*
X118803835Y-134059740D01*
X118803835Y-134059740D02*
X118798974Y-133978749D01*
X118798974Y-133978749D02*
X118653831Y-133727354D01*
X119142385Y-134283269D02*
X119323814Y-134597513D01*
X119294646Y-134111564D02*
X118761734Y-134712534D01*
X118761734Y-134712534D02*
X119548646Y-134551504D01*
X119893360Y-135148567D02*
X119452117Y-135110025D01*
X119675646Y-134771475D02*
X119015734Y-135152475D01*
X119015734Y-135152475D02*
X119160877Y-135403870D01*
X119160877Y-135403870D02*
X119228587Y-135448576D01*
X119228587Y-135448576D02*
X119278155Y-135461857D01*
X119278155Y-135461857D02*
X119359146Y-135456996D01*
X119359146Y-135456996D02*
X119453419Y-135402567D01*
X119453419Y-135402567D02*
X119498125Y-135334857D01*
X119498125Y-135334857D02*
X119511407Y-135285290D01*
X119511407Y-135285290D02*
X119506545Y-135204298D01*
X119506545Y-135204298D02*
X119361402Y-134952904D01*
X120056646Y-135431386D02*
X119396734Y-135812386D01*
X120274360Y-135808479D02*
X119733982Y-135743374D01*
X119614449Y-136189479D02*
X119773827Y-135594672D01*
M02*
