%TF.GenerationSoftware,KiCad,Pcbnew,7.0.7*%
%TF.CreationDate,2024-06-03T14:17:06-05:00*%
%TF.ProjectId,Accel and Strain Gage board,41636365-6c20-4616-9e64-205374726169,rev?*%
%TF.SameCoordinates,Original*%
%TF.FileFunction,Legend,Top*%
%TF.FilePolarity,Positive*%
%FSLAX46Y46*%
G04 Gerber Fmt 4.6, Leading zero omitted, Abs format (unit mm)*
G04 Created by KiCad (PCBNEW 7.0.7) date 2024-06-03 14:17:06*
%MOMM*%
%LPD*%
G01*
G04 APERTURE LIST*
%ADD10C,0.150000*%
%ADD11C,0.203200*%
%ADD12C,0.152400*%
G04 APERTURE END LIST*
D10*
X121158000Y-127000000D02*
X119049800Y-127000000D01*
X127000000Y-123190000D02*
X127000000Y-123952000D01*
X127000000Y-130048000D02*
X127000000Y-130810000D01*
X132842000Y-127000000D02*
X134940000Y-127000000D01*
D11*
X121101716Y-117760923D02*
X121779050Y-117760923D01*
X121779050Y-117760923D02*
X121343621Y-118776923D01*
X122117716Y-117857685D02*
X122166097Y-117809304D01*
X122166097Y-117809304D02*
X122262859Y-117760923D01*
X122262859Y-117760923D02*
X122504764Y-117760923D01*
X122504764Y-117760923D02*
X122601526Y-117809304D01*
X122601526Y-117809304D02*
X122649907Y-117857685D01*
X122649907Y-117857685D02*
X122698288Y-117954447D01*
X122698288Y-117954447D02*
X122698288Y-118051209D01*
X122698288Y-118051209D02*
X122649907Y-118196352D01*
X122649907Y-118196352D02*
X122069335Y-118776923D01*
X122069335Y-118776923D02*
X122698288Y-118776923D01*
D12*
%TO.C,72*%
X123190000Y-118998990D02*
X123571000Y-118617990D01*
X123190000Y-122935990D02*
X123190000Y-118998990D01*
X123190000Y-122935990D02*
X130683000Y-122935990D01*
X123571000Y-118617990D02*
X130683000Y-118617990D01*
X130683000Y-122935990D02*
X130683000Y-118617990D01*
%TD*%
M02*
