%TF.GenerationSoftware,KiCad,Pcbnew,7.0.7*%
%TF.CreationDate,2024-06-03T14:17:06-05:00*%
%TF.ProjectId,Accel and Strain Gage board,41636365-6c20-4616-9e64-205374726169,rev?*%
%TF.SameCoordinates,Original*%
%TF.FileFunction,Copper,L1,Top*%
%TF.FilePolarity,Positive*%
%FSLAX46Y46*%
G04 Gerber Fmt 4.6, Leading zero omitted, Abs format (unit mm)*
G04 Created by KiCad (PCBNEW 7.0.7) date 2024-06-03 14:17:06*
%MOMM*%
%LPD*%
G01*
G04 APERTURE LIST*
%TA.AperFunction,ComponentPad*%
%ADD10O,1.270000X2.286000*%
%TD*%
%TA.AperFunction,SMDPad,CuDef*%
%ADD11R,2.159000X0.762000*%
%TD*%
%TA.AperFunction,SMDPad,CuDef*%
%ADD12R,1.651000X0.762000*%
%TD*%
%TA.AperFunction,ComponentPad*%
%ADD13C,2.032000*%
%TD*%
%TA.AperFunction,ViaPad*%
%ADD14C,2.374900*%
%TD*%
%TA.AperFunction,ViaPad*%
%ADD15C,0.500000*%
%TD*%
%TA.AperFunction,Conductor*%
%ADD16C,0.200000*%
%TD*%
G04 APERTURE END LIST*
D10*
%TO.P,,1*%
%TO.N,N/C*%
X121920000Y-116205000D03*
%TD*%
D11*
%TO.P,72,1*%
%TO.N,N/C*%
X124714000Y-120141990D03*
D12*
%TO.P,72,2*%
X124460000Y-121411990D03*
%TO.P,72,3*%
X129413000Y-121411990D03*
%TO.P,72,4*%
X129413000Y-120141990D03*
%TD*%
D13*
%TO.P,,1*%
%TO.N,N/C*%
X119380000Y-125730000D03*
%TD*%
D10*
%TO.P,,1*%
%TO.N,N/C*%
X132080000Y-116205000D03*
%TD*%
%TO.P,,1*%
%TO.N,N/C*%
X128270000Y-114935000D03*
%TD*%
%TO.P,,1*%
%TO.N,N/C*%
X133985000Y-116840000D03*
%TD*%
%TO.P,,1*%
%TO.N,N/C*%
X120015000Y-116840000D03*
%TD*%
D13*
%TO.P,,1*%
%TO.N,N/C*%
X134620000Y-128270000D03*
%TD*%
D10*
%TO.P,,1*%
%TO.N,N/C*%
X130175000Y-115570000D03*
%TD*%
%TO.P,,1*%
%TO.N,N/C*%
X125730000Y-114935000D03*
%TD*%
%TO.P,,1*%
%TO.N,N/C*%
X123825000Y-115570000D03*
%TD*%
D13*
%TO.P,,1*%
%TO.N,N/C*%
X119380000Y-128270000D03*
%TD*%
%TO.P,,1*%
%TO.N,N/C*%
X134620000Y-125730000D03*
%TD*%
D14*
%TO.N,*%
X142947856Y-136207521D03*
X126999996Y-108585021D03*
D15*
X128143000Y-116840000D03*
D14*
X111052136Y-136207521D03*
%TD*%
D16*
%TO.N,*%
X118753632Y-115942367D02*
X119380000Y-115316000D01*
X120591013Y-121607013D02*
X120650000Y-121666000D01*
X122914186Y-120141990D02*
X124714000Y-120141990D01*
X122047000Y-119253000D02*
X122047000Y-119274790D01*
X124022632Y-121411990D02*
X124460000Y-121411990D01*
X126724210Y-118491000D02*
X129837580Y-118491000D01*
X121110619Y-115557386D02*
X121110619Y-115522619D01*
X119507000Y-119126000D02*
X119603184Y-119222184D01*
X123317000Y-117475000D02*
X122406210Y-118385790D01*
X126873000Y-121412000D02*
X126873000Y-121263210D01*
X130450814Y-121411990D02*
X129413000Y-121411990D01*
X125730000Y-114935000D02*
X125730000Y-117317185D01*
X119993210Y-115062000D02*
X120142000Y-115062000D01*
X118745000Y-125095000D02*
X118930987Y-124909013D01*
X120015000Y-116840000D02*
X120015000Y-118481975D01*
X122796235Y-122555000D02*
X125931395Y-122555000D01*
X131318000Y-119612210D02*
X131318000Y-120544790D01*
X123825000Y-115570000D02*
X123825000Y-116248580D01*
X121009210Y-115421210D02*
X121110619Y-115522619D01*
X121920000Y-116205000D02*
X121607013Y-115892013D01*
X118618000Y-116437210D02*
X118618000Y-116979765D01*
X126238000Y-122428000D02*
X126603592Y-122062408D01*
X131835025Y-116449974D02*
X132080000Y-116205000D01*
X129369420Y-117348000D02*
X129667000Y-117348000D01*
X128353444Y-120141990D02*
X129413000Y-120141990D01*
X118618015Y-116979765D02*
G75*
G03*
X119507000Y-119126000I3035185J-35D01*
G01*
X119993210Y-115062005D02*
G75*
G03*
X119380001Y-115316001I-10J-867195D01*
G01*
X122406214Y-118385794D02*
G75*
G03*
X122047000Y-119253000I867186J-867206D01*
G01*
X131317995Y-119612210D02*
G75*
G03*
X131063999Y-118999001I-867195J10D01*
G01*
X130450814Y-121411995D02*
G75*
G03*
X131063999Y-121157999I-14J867195D01*
G01*
X121009206Y-115421214D02*
G75*
G03*
X120142000Y-115062000I-867206J-867186D01*
G01*
X125931395Y-122554997D02*
G75*
G03*
X126237999Y-122427999I5J433597D01*
G01*
X120649989Y-121666011D02*
G75*
G03*
X122796235Y-122555000I2146211J2146211D01*
G01*
X118718437Y-116027360D02*
G75*
G03*
X118618001Y-116437210I805563J-414640D01*
G01*
X128142994Y-116840006D02*
G75*
G03*
X129369420Y-117348000I1226406J1226406D01*
G01*
X120141993Y-120523000D02*
G75*
G03*
X120591013Y-121607013I1533007J0D01*
G01*
X131064006Y-118998994D02*
G75*
G03*
X129837580Y-118491000I-1226406J-1226406D01*
G01*
X128353444Y-120142009D02*
G75*
G03*
X127127000Y-120650000I-44J-1734391D01*
G01*
X122301004Y-119887996D02*
G75*
G03*
X122914186Y-120141990I613196J613196D01*
G01*
X126603589Y-122062405D02*
G75*
G03*
X126873000Y-121412000I-650389J650405D01*
G01*
X131064003Y-121158003D02*
G75*
G03*
X131318000Y-120544790I-613203J613203D01*
G01*
X118753659Y-115942394D02*
G75*
G03*
X118718429Y-116027356I84941J-85006D01*
G01*
X121607012Y-115892014D02*
G75*
G03*
X121110619Y-115557386I-1127112J-1136486D01*
G01*
X125730007Y-117317185D02*
G75*
G03*
X126111000Y-118237000I1300793J-15D01*
G01*
X120015011Y-118481975D02*
G75*
G03*
X120650000Y-120015000I2167989J-25D01*
G01*
X126110997Y-118237003D02*
G75*
G03*
X126724210Y-118491000I613203J613203D01*
G01*
X129667000Y-117348014D02*
G75*
G03*
X131835025Y-116449974I0J3066014D01*
G01*
X127126997Y-120649997D02*
G75*
G03*
X126873000Y-121263210I613203J-613203D01*
G01*
X123317006Y-117475006D02*
G75*
G03*
X123825000Y-116248580I-1226406J1226406D01*
G01*
X122047005Y-119274790D02*
G75*
G03*
X122301001Y-119887999I867195J-10D01*
G01*
X120142009Y-120523000D02*
G75*
G03*
X119603184Y-119222184I-1839609J0D01*
G01*
X120649991Y-120015009D02*
G75*
G03*
X124022632Y-121411990I3372609J3372609D01*
G01*
%TD*%
M02*
